<svg id="Capa_1" enable-background="new 0 0 498.243 498.243" height="512" viewBox="0 0 498.243 498.243" width="512" xmlns="http://www.w3.org/2000/svg"><g><path d="m58.848 333.618v-321.876c0-6.091 4.938-11.028 11.028-11.028h358.49c6.091 0 11.028 4.938 11.028 11.028v321.876z" fill="#e8ad8c"/><path d="m338.728 333.618c-6.594-43.53-44.265-77-89.606-77s-83.012 33.47-89.606 77z" fill="#e19974"/><path d="m174.668 279.618h-82.879c-1.624 0-2.941-1.317-2.941-2.941v-243.022c0-1.624 1.317-2.941 2.941-2.941h314.664c1.624 0 2.941 1.317 2.941 2.941v243.022c0 1.624-1.317 2.941-2.941 2.941h-82.878z" fill="#99e6fc"/><path d="m188.88 279.618h120.484c-16.026-14.291-37.131-23-60.242-23s-44.217 8.709-60.242 23z" fill="#01d0fb"/><path d="m334.014 219.62-35.813-14.616v-24.72c13.281-12.842 21.551-30.833 21.551-50.767 0-39.008-31.622-70.63-70.63-70.63s-70.63 31.622-70.63 70.63c0 20.43 8.684 38.824 22.551 51.72v23.767l-35.813 14.616c-8.006 3.267-13.238 11.054-13.238 19.701v40.297h195.261v-40.297c-.001-8.647-5.233-16.434-13.239-19.701z" fill="#62dbfb"/><path d="m197.051 219.62 35.813-14.616v-23.767c-13.867-12.896-22.551-31.29-22.551-51.72 0-33.534 23.378-61.589 54.719-68.809-5.116-1.178-10.437-1.822-15.911-1.822-39.008 0-70.63 31.622-70.63 70.63 0 20.43 8.684 38.824 22.551 51.72v23.767l-35.813 14.616c-8.006 3.267-13.238 11.054-13.238 19.701v40.297h31.822v-40.297c0-8.646 5.233-16.433 13.238-19.7z" fill="#01d0fb"/><g><path d="m349.247 357.35h137.629c6.278 0 11.367-5.089 11.367-11.367v-24.998c0-6.278-5.089-11.367-11.367-11.367h-144.429-186.65-144.43c-6.278 0-11.367 5.089-11.367 11.367v24.998c0 6.278 5.089 11.367 11.367 11.367h137.629z" fill="#dc8758"/></g><path d="m334.014 437.533-35.813-14.616v-39.033h-97.159v39.033l-35.813 14.616c-8.006 3.267-13.238 11.054-13.238 19.701v34.496c0 3.204 2.597 5.801 5.801 5.801h183.66c3.204 0 5.801-2.597 5.801-5.801v-34.496c-.001-8.647-5.233-16.434-13.239-19.701z" fill="#fef48b"/><circle cx="249.122" cy="347.248" fill="#fef48b" r="70.63"/><path d="m339.753 347.248c0-13.418-2.935-26.162-8.19-37.63h-164.881c-5.256 11.468-8.19 24.212-8.19 37.63 0 3.415.196 6.784.566 10.102h180.129c.369-3.318.566-6.687.566-10.102z" fill="#d77f4a"/><circle cx="249.122" cy="347.248" fill="#fef48b" r="70.63"/><path d="m188.774 494.729v-34.496c0-8.647 5.232-16.434 13.238-19.701l21.915-8.944c8.405-3.43 13.898-11.605 13.898-20.682 0-5.324-1.892-10.481-5.369-14.514-3.305-3.833-6.203-8.027-8.638-12.508h-22.775v39.033l-35.813 14.616c-8.006 3.267-13.238 11.054-13.238 19.701v34.496c0 3.204 2.597 5.801 5.801 5.801h31.704c-.46-.832-.723-1.786-.723-2.802z" fill="#fef056"/><path d="m228.036 390.708c-8.033-11.459-12.762-25.402-12.762-40.459 0-34.632 24.945-63.424 57.835-69.453-7.486-2.701-15.57-4.177-23.987-4.177-39.008 0-70.63 31.622-70.63 70.63 0 31.661 20.839 58.437 49.544 67.406z" fill="#fef056"/><g><path d="m196.274 453.633c-4.142 0-7.5 3.358-7.5 7.5v36.396h15v-36.396c0-4.142-3.358-7.5-7.5-7.5z" fill="#fee903"/><path d="m302.969 453.633c-4.143 0-7.5 3.358-7.5 7.5v36.396h15v-36.396c0-4.142-3.357-7.5-7.5-7.5z" fill="#fef056"/><g><path d="m196.274 268.919c-4.142 0-7.5-3.358-7.5-7.5v-18.198c0-4.142 3.358-7.5 7.5-7.5s7.5 3.358 7.5 7.5v18.198c0 4.143-3.358 7.5-7.5 7.5z" fill="#01d0fb"/></g><g><path d="m302.969 269.773c-4.143 0-7.5-3.358-7.5-7.5v-19.052c0-4.142 3.357-7.5 7.5-7.5s7.5 3.358 7.5 7.5v19.052c0 4.143-3.357 7.5-7.5 7.5z" fill="#01d0fb"/></g><g><path d="m249.122 177.648c-19.324 0-36.713-11.509-44.3-29.32-1.624-3.811.15-8.216 3.961-9.839 3.81-1.624 8.215.149 9.839 3.961 5.227 12.27 17.199 20.198 30.5 20.198 13.302 0 25.273-7.928 30.5-20.198 1.623-3.81 6.025-5.586 9.84-3.961 3.811 1.623 5.584 6.028 3.961 9.839-7.587 17.811-24.977 29.32-44.301 29.32z" fill="#b5adb6"/></g><g><path d="m226.203 115.922c-4.142 0-7.5-3.358-7.5-7.5v-7.251c0-4.142 3.358-7.5 7.5-7.5s7.5 3.358 7.5 7.5v7.251c0 4.142-3.358 7.5-7.5 7.5z" fill="#b5adb6"/></g><g><path d="m270.371 115.922c-4.143 0-7.5-3.358-7.5-7.5v-7.251c0-4.142 3.357-7.5 7.5-7.5s7.5 3.358 7.5 7.5v7.251c0 4.142-3.358 7.5-7.5 7.5z" fill="#b5adb6"/></g><g fill="#c8effe"><path d="m88.848 143.703v25.395l6.027-8.327c26.143-35.297 57.344-77.559 92.779-125.666l3.17-4.391h-18.566c-31.357 42.566-59.356 80.494-83.41 112.989z"/><path d="m149.677 182.707c-3.33-2.463-8.026-1.762-10.49 1.567-19.094 25.803-35.99 48.575-50.338 67.84v24.39l5.803-7.087c.072-.088.142-.177.209-.268 15.572-20.881 34.542-46.436 56.384-75.953 2.463-3.329 1.761-8.026-1.568-10.489z"/><path d="m409.395 33.599s-35.873 50.452-51.575 71.802c-2.454 3.337-1.738 8.032 1.599 10.486 1.338.984 2.895 1.458 4.438 1.458 2.304 0 4.578-1.058 6.048-3.057 13.588-18.476 26.847-36.514 39.491-53.725v-26.964z"/><path d="m409.395 142.783-6.606 10.455c-12.42 16.886-25.105 34.123-37.832 51.404-2.456 3.335-1.743 8.03 1.592 10.486 1.339.986 2.896 1.461 4.441 1.461 2.303 0 4.575-1.057 6.045-3.053 10.867-14.756 21.693-29.465 32.36-43.966z"/></g></g></g></svg>