<svg height="512pt" viewBox="-41 0 511 512" width="512pt" xmlns="http://www.w3.org/2000/svg"><path d="m93.5 0-14.300781 118.699219h263.5l-7-118.699219z" fill="#357fbc"/><path d="m200.300781 217.699219-108.898437 53.402343-17.402344-35.601562-68.699219-140.101562c-11.398437-23.199219-1.800781-51.296876 21.398438-62.699219l66.800781-32.699219 79.5 162.199219zm0 0" fill="#589ce0"/><path d="m423.902344 95.398438-68.703125 140.101562-17.398438 35.601562-108.800781-53.402343 27.199219-55.5 79.5-162.199219 66.800781 32.800781c23.199219 11.398438 32.800781 39.398438 21.402344 62.597657zm0 0" fill="#589ce0"/><path d="m173.101562 162.199219 27.199219 55.5-108.898437 53.402343-17.402344-35.601562c22-35.800781 57.300781-62.5 99.101562-73.300781zm0 0" fill="#357fbc"/><path d="m355.199219 235.5-17.398438 35.601562-108.800781-53.402343 27.199219-55.5c41.601562 10.800781 77 37.5 99 73.300781zm0 0" fill="#357fbc"/><path d="m379.601562 347c0 91.128906-73.875 165-165 165-91.128906 0-165-73.871094-165-165s73.871094-165 165-165c91.125 0 165 73.871094 165 165zm0 0" fill="#e8a328"/><path d="m324.800781 347c0 60.863281-49.335937 110.199219-110.199219 110.199219-60.863281 0-110.199218-49.335938-110.199218-110.199219s49.335937-110.199219 110.199218-110.199219c60.863282 0 110.199219 49.335938 110.199219 110.199219zm0 0" fill="#ffbf3e"/><path d="m230.300781 288.101562 7.199219 14.597657c2.5 5.199219 7.5 8.699219 13.199219 9.601562l16.101562 2.300781c14.300781 2.097657 20.101563 19.699219 9.699219 29.796876l-11.597656 11.300781c-4.101563 4-6 9.800781-5 15.5l2.699218 16c2.398438 14.300781-12.5 25.199219-25.402343 18.402343l-14.398438-7.601562c-5.101562-2.699219-11.199219-2.699219-16.300781 0l-14.398438 7.601562c-12.800781 6.699219-27.800781-4.101562-25.402343-18.402343l2.703125-16c1-5.699219-.902344-11.5-5-15.5l-11.601563-11.300781c-10.398437-10.097657-4.699219-27.699219 9.699219-29.796876l16.101562-2.300781c5.699219-.800781 10.597657-4.402343 13.199219-9.601562l7.199219-14.597657c6.300781-13 24.902344-13 31.300781 0zm0 0" fill="#e8a328"/></svg>